<!DOCTYPE svg PUBLIC "-//W3C//DTD SVG 20010904//EN" "http://www.w3.org/TR/2001/REC-SVG-20010904/DTD/svg10.dtd">
<svg version="1.0" xmlns="http://www.w3.org/2000/svg" width="136px" height="136px" viewBox="0 0 1360 1360" preserveAspectRatio="xMidYMid meet">
<g id="layer101" fill="#3f2b0c" stroke="none">
 <path d="M286 1091 l-227 -227 57 -265 c31 -145 61 -269 68 -276 6 -6 119 -57 251 -113 132 -56 256 -110 275 -119 l36 -17 231 225 231 226 -59 294 c-32 162 -62 297 -66 301 -5 4 -114 42 -243 85 -129 43 -256 86 -281 96 l-46 17 -227 -227z"/>
 </g>
<g id="layer102" fill="#fea31b" stroke="none">
 <path d="M530 1280 c0 -14 19 -147 25 -175 4 -21 6 -21 182 -8 98 7 203 15 233 19 l55 6 -230 79 c-126 44 -238 82 -247 85 -10 3 -18 0 -18 -6z"/>
 <path d="M305 1082 c-110 -108 -193 -193 -185 -190 8 3 106 47 218 98 158 73 201 96 198 109 -3 9 -10 52 -16 95 -6 44 -11 81 -13 82 -1 1 -92 -86 -202 -194z"/>
 <path d="M800 1084 c-91 -7 -180 -14 -198 -16 l-33 -3 181 -200 c99 -110 180 -206 180 -215 0 -11 -5 -10 -18 6 -73 91 -357 393 -362 387 -4 -4 -48 -130 -97 -279 l-90 -270 266 53 c239 47 328 60 281 40 -8 -4 -131 -31 -273 -60 -142 -29 -258 -55 -258 -57 0 -3 82 -87 184 -188 l184 -183 106 253 c104 247 108 259 157 483 27 127 52 238 54 248 5 21 -17 21 -264 1z"/>
 <path d="M305 955 c-121 -55 -209 -100 -207 -107 2 -6 58 -87 125 -180 l121 -169 93 273 c50 150 92 274 93 276 1 7 -34 -7 -225 -93z"/>
 <path d="M1080 1050 c-3 -9 -97 -435 -96 -437 1 -1 45 -17 99 -36 83 -30 97 -33 96 -19 0 23 -96 498 -99 492z"/>
 <path d="M90 809 c0 -8 90 -423 96 -442 5 -15 17 -7 75 44 40 35 68 68 65 75 -5 12 -209 299 -227 319 -5 5 -9 7 -9 4z"/>
 <path d="M885 378 c-49 -116 -94 -220 -98 -232 -4 -12 82 69 193 179 l200 200 -97 32 c-54 18 -100 33 -103 33 -3 0 -45 -95 -95 -212z"/>
 <path d="M270 395 c-35 -35 -62 -66 -59 -69 4 -3 206 -90 409 -175 l75 -32 -170 171 c-93 93 -174 170 -180 170 -6 0 -39 -29 -75 -65z"/>
 </g>

</svg>
