<!DOCTYPE svg PUBLIC "-//W3C//DTD SVG 20010904//EN" "http://www.w3.org/TR/2001/REC-SVG-20010904/DTD/svg10.dtd">
<svg version="1.0" xmlns="http://www.w3.org/2000/svg" width="300px" height="140px" viewBox="0 0 3000 1400" preserveAspectRatio="xMidYMid meet">
<g id="layer101" fill="#070500" stroke="none">
<path d="M1377 1333 c-10 -17 -12 -1268 -2 -1271 13 -3 22 342 24 881 1 359 -3 423 -22 390z"/>
<path d="M283 1093 l-232 -228 60 -270 c33 -148 63 -273 67 -277 4 -4 135 -61 291 -128 l284 -122 229 229 230 230 -60 297 c-32 163 -61 298 -63 300 -2 1 -128 45 -279 96 -151 51 -280 95 -285 97 -6 2 -114 -99 -242 -224z"/>
</g>
<g id="layer102" fill="#005082" stroke="none">
<path d="M1540 950 l0 -160 105 0 105 0 0 30 0 30 -75 0 -75 0 0 35 0 35 65 0 65 0 0 30 0 30 -65 0 -65 0 0 65 0 65 -30 0 -30 0 0 -160z"/>
<path d="M1790 950 l0 -160 105 0 105 0 0 30 0 30 -75 0 -75 0 0 35 0 35 65 0 c63 0 65 1 65 25 0 24 -2 25 -65 25 l-65 0 0 40 0 40 80 0 80 0 0 30 0 30 -110 0 -110 0 0 -160z"/>
<path d="M2020 1103 c0 -5 25 -77 57 -160 57 -152 57 -153 89 -153 31 0 31 1 87 153 32 83 57 155 57 160 0 4 -15 7 -33 7 -30 0 -35 -4 -47 -40 -13 -40 -13 -40 -66 -40 l-53 0 -12 40 c-11 36 -15 40 -46 40 -18 0 -33 -3 -33 -7z m180 -126 c0 -2 -8 -26 -17 -53 l-17 -49 -12 30 c-29 73 -29 75 10 75 20 0 36 -1 36 -3z"/>
<path d="M1540 431 l0 -161 95 0 c88 0 98 2 120 25 29 28 32 70 9 103 -15 22 -15 25 5 46 30 32 28 86 -4 116 -21 20 -37 24 -125 28 l-100 5 0 -162z m174 77 c19 -31 -4 -53 -63 -56 l-51 -3 0 41 0 41 51 -3 c36 -2 55 -8 63 -20z m-11 -129 c20 -32 1 -49 -53 -49 l-50 0 0 36 0 35 46 -3 c30 -2 51 -9 57 -19z"/>
<path d="M1800 579 c0 -7 25 -79 56 -160 57 -148 57 -149 88 -149 31 0 31 1 89 153 31 84 57 156 57 160 0 4 -16 7 -35 7 -31 0 -35 -3 -46 -40 l-12 -40 -53 0 -53 0 -12 40 c-11 36 -15 40 -46 40 -18 0 -33 -5 -33 -11z m162 -170 l-16 -51 -17 38 c-25 57 -24 64 15 64 l34 0 -16 -51z"/>
<path d="M2120 430 l0 -160 86 0 c84 0 87 1 120 34 24 24 34 43 34 65 0 36 -23 87 -42 93 -8 3 -1 21 20 56 18 29 32 57 32 62 0 6 -15 10 -34 10 -32 0 -38 -5 -68 -55 -27 -45 -37 -55 -60 -55 -27 0 -28 2 -28 55 0 54 0 55 -30 55 l-30 0 0 -160z m158 -22 c7 -7 12 -21 12 -33 0 -32 -20 -45 -67 -45 l-43 0 0 45 0 45 43 0 c24 0 48 -5 55 -12z"/>
<path d="M2410 430 l0 -160 84 0 c76 0 88 3 115 26 49 41 53 106 10 153 l-21 22 31 50 c17 28 31 55 31 60 0 5 -15 9 -34 9 -32 0 -38 -5 -68 -55 -27 -45 -37 -55 -60 -55 -27 0 -28 2 -28 55 0 54 0 55 -30 55 l-30 0 0 -160z m163 -32 c8 -12 7 -24 -1 -42 -10 -22 -18 -26 -57 -26 l-45 0 0 46 0 45 46 -3 c31 -2 51 -9 57 -20z"/>
<path d="M2770 536 c0 -44 -7 -67 -33 -113 -19 -32 -46 -79 -61 -105 l-27 -48 41 0 c40 0 41 1 72 65 18 36 35 65 38 65 3 0 20 -29 39 -65 32 -64 34 -65 73 -65 39 0 40 0 26 23 -8 12 -36 61 -61 108 -39 71 -47 95 -47 138 0 50 -1 51 -30 51 -30 0 -30 -1 -30 -54z"/>
</g>
<g id="layer103" fill="#a26811" stroke="none">
<path d="M530 1270 c0 -34 22 -175 29 -182 6 -6 373 17 441 28 31 6 4 17 -210 90 -135 46 -248 83 -252 84 -5 0 -8 -9 -8 -20z"/>
<path d="M298 1081 c-200 -199 -202 -202 -148 -178 142 62 376 170 383 176 8 8 -16 188 -27 198 -3 3 -97 -85 -208 -196z"/>
<path d="M757 1084 c-93 -7 -173 -14 -180 -17 -9 -3 170 -209 322 -369 19 -21 32 -40 29 -43 -3 -4 -89 86 -189 198 -110 123 -187 201 -191 194 -9 -18 -189 -550 -186 -552 2 -2 124 21 273 50 237 47 291 55 274 42 -2 -2 -124 -28 -271 -57 -148 -29 -268 -56 -268 -61 0 -9 362 -357 374 -359 5 -1 56 110 114 247 103 244 106 252 158 493 30 135 54 246 54 248 0 5 -155 -1 -313 -14z"/>
<path d="M313 961 c-117 -53 -215 -99 -218 -103 -6 -6 227 -342 245 -353 8 -5 196 543 189 549 -2 2 -99 -40 -216 -93z"/>
<path d="M1077 1050 c-7 -19 -86 -387 -89 -419 -3 -22 5 -27 96 -57 55 -19 100 -33 101 -31 1 1 -21 119 -50 262 -29 143 -55 253 -58 245z"/>
<path d="M90 809 c0 -26 92 -444 100 -452 8 -9 140 108 140 124 0 5 -54 84 -120 175 -66 92 -120 160 -120 153z"/>
<path d="M881 374 c-51 -119 -95 -224 -98 -233 -6 -14 387 364 395 381 3 6 -173 68 -194 68 -6 0 -52 -97 -103 -216z"/>
<path d="M272 398 c-41 -38 -72 -71 -70 -72 3 -3 397 -170 478 -203 l35 -15 -40 39 c-22 22 -105 103 -185 180 l-145 141 -73 -70z"/>
</g>
<g id="layer104" fill="#fea31b" stroke="none">
<path d="M533 1268 c3 -13 9 -53 12 -89 4 -36 11 -72 15 -79 6 -10 41 -10 186 0 305 22 303 12 24 108 -227 77 -242 81 -237 60z"/>
<path d="M315 1090 c-104 -104 -187 -190 -184 -190 3 0 92 40 199 89 l195 89 -3 66 c-1 37 -6 83 -10 102 l-7 34 -190 -190z"/>
<path d="M820 1084 c-96 -7 -191 -14 -211 -16 l-37 -3 184 -204 c101 -112 181 -208 177 -213 -6 -12 2 -20 -193 197 -84 94 -160 178 -170 188 -16 18 -21 6 -109 -254 -50 -149 -90 -274 -87 -276 2 -2 121 19 264 46 277 54 292 57 276 41 -5 -5 -124 -33 -264 -61 -140 -29 -258 -55 -262 -58 -4 -4 73 -87 172 -186 99 -98 182 -176 185 -173 4 3 53 116 110 250 100 237 105 252 154 477 28 128 51 239 51 247 0 16 3 16 -240 -2z"/>
<path d="M302 952 c-194 -87 -211 -97 -200 -113 117 -167 234 -328 239 -329 3 0 47 122 97 270 50 149 88 270 84 269 -4 0 -103 -44 -220 -97z"/>
<path d="M1077 1030 c-13 -35 -88 -403 -84 -413 4 -12 175 -72 182 -65 3 2 -17 114 -44 248 -26 135 -51 238 -54 230z"/>
<path d="M94 790 c4 -14 26 -117 51 -229 25 -112 46 -205 47 -206 2 -2 34 26 72 61 l68 64 -113 157 c-132 185 -132 186 -125 153z"/>
<path d="M971 573 c-5 -10 -31 -72 -59 -138 -28 -66 -67 -158 -86 -204 l-36 -83 77 70 c104 94 308 300 303 305 -5 4 -178 67 -185 67 -2 0 -8 -8 -14 -17z"/>
<path d="M274 395 c-38 -34 -67 -65 -64 -67 3 -2 113 -50 245 -106 l239 -102 -69 71 c-39 39 -117 115 -176 169 l-105 99 -70 -64z"/>
</g>


</svg>
