<?xml version="1.0" standalone="no"?>
<!DOCTYPE svg PUBLIC "-//W3C//DTD SVG 20010904//EN"
 "http://www.w3.org/TR/2001/REC-SVG-20010904/DTD/svg10.dtd">
<svg version="1.0" xmlns="http://www.w3.org/2000/svg"
 width="100.000000pt" height="100.000000pt" viewBox="0 0 100.000000 100.000000"
 preserveAspectRatio="xMidYMid meet">
<metadata>
Created by potrace 1.15, written by Peter Selinger 2001-2017
</metadata>
<g transform="translate(0.000000,100.000000) scale(0.100000,-0.100000)"
fill="#000000" stroke="none">
<path d="M470 941 c0 -16 9 -21 48 -26 204 -25 344 -153 384 -349 22 -112 -28
-262 -117 -351 -89 -90 -239 -139 -352 -117 -319 64 -455 432 -247 672 l39 44
5 -64 c4 -58 7 -65 28 -68 22 -3 22 -2 22 112 l0 116 -104 0 c-78 0 -106 -4
-116 -15 -21 -25 -1 -35 69 -35 l68 0 -34 -37 c-177 -187 -165 -496 25 -663
273 -241 702 -87 762 273 45 264 -166 527 -422 527 -51 0 -58 -2 -58 -19z"/>
</g>
</svg>
