<?xml version="1.0" standalone="no"?>
<!DOCTYPE svg PUBLIC "-//W3C//DTD SVG 20010904//EN"
 "http://www.w3.org/TR/2001/REC-SVG-20010904/DTD/svg10.dtd">
<svg version="1.0" xmlns="http://www.w3.org/2000/svg"
 width="100.000000pt" height="100.000000pt" viewBox="0 0 100.000000 100.000000"
 preserveAspectRatio="xMidYMid meet">
<metadata>
Created by potrace 1.15, written by Peter Selinger 2001-2017
</metadata>
<g transform="translate(0.000000,100.000000) scale(0.100000,-0.100000)"
fill="#000000" stroke="none">
<path d="M483 983 c-10 -4 -13 -75 -13 -311 l0 -306 -64 63 c-44 43 -69 62
-80 58 -29 -11 -17 -32 77 -125 l92 -92 93 93 c50 51 92 98 92 105 0 7 -7 15
-16 19 -11 4 -36 -15 -80 -58 l-64 -63 0 306 c0 313 -1 323 -37 311z"/>
<path d="M130 345 l0 -345 365 0 365 0 0 345 0 346 -112 -3 c-105 -3 -113 -4
-113 -23 0 -18 8 -20 88 -23 l87 -3 0 -294 0 -295 -315 0 -315 0 0 295 0 295
91 0 c88 0 90 1 87 23 -3 21 -7 22 -115 25 l-113 3 0 -346z"/>
</g>
</svg>
