<?xml version="1.0" standalone="no"?>
<!DOCTYPE svg PUBLIC "-//W3C//DTD SVG 20010904//EN"
 "http://www.w3.org/TR/2001/REC-SVG-20010904/DTD/svg10.dtd">
<svg version="1.0" xmlns="http://www.w3.org/2000/svg"
 width="100.000000pt" height="100.000000pt" viewBox="0 0 100.000000 100.000000"
 preserveAspectRatio="xMidYMid meet">
<metadata>
Created by potrace 1.15, written by Peter Selinger 2001-2017
</metadata>
<g transform="translate(0.000000,100.000000) scale(0.100000,-0.100000)"
fill="#000000" stroke="none">
<path d="M406 870 c-43 -44 -76 -85 -74 -92 10 -29 42 -19 89 28 l48 48 3
-145 c3 -136 4 -144 23 -144 19 0 20 8 25 143 l5 143 45 -46 c46 -47 90 -61
90 -27 0 18 -148 172 -166 172 -6 0 -45 -36 -88 -80z"/>
<path d="M117 563 c-37 -38 -67 -73 -67 -79 0 -17 135 -144 153 -144 29 0 19
42 -20 82 l-37 38 66 0 c100 0 112 -13 118 -137 5 -90 7 -98 25 -98 18 0 20 8
23 95 5 150 -29 190 -164 190 l-68 0 38 39 c38 39 45 73 16 79 -8 1 -45 -28
-83 -65z"/>
<path d="M777 623 c-15 -14 -5 -39 30 -75 l37 -38 -70 0 c-57 0 -78 -4 -105
-23 -51 -34 -59 -59 -57 -167 3 -87 5 -95 23 -95 18 0 20 8 25 98 6 125 17
137 123 137 l71 0 -43 -44 c-29 -29 -42 -50 -38 -60 11 -28 31 -17 105 57 l72
72 -73 73 c-70 69 -86 80 -100 65z"/>
<path d="M36 234 c-3 -9 -6 -56 -6 -105 l0 -89 465 0 466 0 -3 103 c-3 97 -4
102 -25 105 -22 3 -23 1 -23 -77 l0 -81 -415 0 -415 0 0 80 c0 72 -2 80 -19
80 -10 0 -22 -7 -25 -16z"/>
</g>
</svg>
