<?xml version="1.0" standalone="no"?>
<!DOCTYPE svg PUBLIC "-//W3C//DTD SVG 20010904//EN"
 "http://www.w3.org/TR/2001/REC-SVG-20010904/DTD/svg10.dtd">
<svg version="1.0" xmlns="http://www.w3.org/2000/svg"
 width="100.000000pt" height="100.000000pt" viewBox="0 0 100.000000 100.000000"
 preserveAspectRatio="xMidYMid meet">
<metadata>
Created by potrace 1.15, written by Peter Selinger 2001-2017
</metadata>
<g transform="translate(0.000000,100.000000) scale(0.100000,-0.100000)"
fill="#000000" stroke="none">
<path d="M630 923 c0 -10 39 -57 86 -104 l86 -87 -198 -5 c-222 -5 -269 -15
-351 -70 -36 -25 -57 -50 -82 -100 -32 -61 -34 -74 -34 -154 1 -129 59 -323
98 -323 27 0 28 29 2 88 -35 80 -51 155 -50 237 0 110 43 185 132 230 69 34
146 45 330 45 l166 0 -94 -94 c-65 -65 -92 -99 -88 -110 4 -9 12 -16 19 -16
15 0 248 230 248 245 0 6 -51 61 -113 123 -76 76 -120 112 -135 112 -14 0 -22
-6 -22 -17z"/>
</g>
</svg>
