<?xml version="1.0" standalone="no"?>
<!DOCTYPE svg PUBLIC "-//W3C//DTD SVG 20010904//EN"
 "http://www.w3.org/TR/2001/REC-SVG-20010904/DTD/svg10.dtd">
<svg version="1.0" xmlns="http://www.w3.org/2000/svg"
 width="100.000000pt" height="100.000000pt" viewBox="0 0 100.000000 100.000000"
 preserveAspectRatio="xMidYMid meet">
<metadata>
Created by potrace 1.15, written by Peter Selinger 2001-2017
</metadata>
<g transform="translate(0.000000,100.000000) scale(0.100000,-0.100000)"
fill="#000000" stroke="none">
<path d="M205 820 l-120 -120 120 -120 c66 -66 128 -120 137 -120 37 0 15 37
-74 128 l-93 94 200 -5 c241 -5 282 -15 355 -85 51 -50 80 -119 80 -191 0 -57
-27 -166 -56 -231 -27 -61 -27 -90 1 -90 24 0 71 113 91 215 33 164 -6 293
-110 362 -82 55 -129 65 -350 70 l-198 5 86 87 c84 84 105 121 68 121 -9 0
-71 -54 -137 -120z"/>
</g>
</svg>
